<svg width="15" height="16" viewBox="0 0 15 16" fill="none" xmlns="http://www.w3.org/2000/svg">
<path d="M14.6692 7.51339H13.6492V7.36672C13.5091 6.05081 12.9227 4.82253 11.9875 3.88618C11.0524 2.94983 9.82488 2.36185 8.50915 2.22005H8.36249V0.886719L7.36249 1.22005V2.20005H7.21582C5.89779 2.33676 4.6663 2.92068 3.72628 3.85463C2.78626 4.78859 2.19439 6.01626 2.04915 7.33339V7.48005H0.71582L1.05582 8.48005H2.06915V8.62672C2.20332 9.94191 2.78275 11.1718 3.71148 12.1127C4.6402 13.0535 5.86248 13.6488 7.17582 13.8001H7.32249V15.1334L8.32249 14.8334V13.8201H8.46915C9.79023 13.6825 11.0241 13.0957 11.9645 12.1577C12.9049 11.2198 13.4949 9.98744 13.6358 8.66672V8.52005H14.9692L14.6692 7.51339ZM11.2558 11.4267C10.8096 11.8782 10.278 12.2363 9.69199 12.4801C9.10595 12.7239 8.47722 12.8485 7.84249 12.8467H7.67582C6.56874 12.8068 5.50921 12.3868 4.67551 11.6573C3.84181 10.9278 3.28484 9.93336 3.09832 8.84138C2.91181 7.7494 3.10713 6.6265 3.65142 5.66164C4.19571 4.69678 5.05575 3.94886 6.08681 3.54373C7.11787 3.1386 8.25701 3.101 9.31254 3.43725C10.3681 3.7735 11.2756 4.46308 11.8823 5.38995C12.489 6.31682 12.758 7.42439 12.6439 8.5263C12.5298 9.6282 12.0396 10.6572 11.2558 11.4401V11.4267Z" fill="#707070"/>
</svg>
