<svg width="17" height="11" viewBox="0 0 17 11" fill="none" xmlns="http://www.w3.org/2000/svg">
<path fill-rule="evenodd" clip-rule="evenodd" d="M12.3021 4.9625C11.2223 4.02306 10.1149 2.55564 10.1149 0.5H11.6741C11.6741 2.00506 12.5191 3.11558 13.465 3.89193C13.9336 4.2765 14.4061 4.56036 14.7628 4.74804C14.9402 4.84139 15.0866 4.90966 15.1862 4.95367C15.2359 4.97565 15.2737 4.99148 15.2978 5.00129L15.3231 5.01147L15.3261 5.01264L15.3275 5.01318L17 5.64674L15.4019 6.45391L15.3957 6.45706L15.368 6.4716C15.3424 6.48521 15.3028 6.50655 15.2512 6.53536C15.1481 6.59305 14.9977 6.68035 14.8159 6.79514C14.4506 7.02575 13.9668 7.36209 13.4868 7.7864C12.4939 8.66398 11.6741 9.77657 11.6741 11H10.1149C10.1149 9.07343 11.374 7.56102 12.4601 6.6011C12.4843 6.57969 12.5085 6.55849 12.5327 6.5375H0.5V4.9625H12.3021Z" fill="#3CEF83"/>
</svg>
