<svg width="16" height="11" viewBox="0 0 16 11" fill="none" xmlns="http://www.w3.org/2000/svg">
<path fill-rule="evenodd" clip-rule="evenodd" d="M11.3542 4.75C10.3153 3.85529 9.25 2.45776 9.25 0.5H10.75C10.75 1.93339 11.5629 2.99103 12.4729 3.73041C12.9237 4.09667 13.3783 4.36701 13.7215 4.54575C13.8922 4.63466 14.0329 4.69968 14.1287 4.74159C14.1766 4.76252 14.213 4.7776 14.2361 4.78695L14.2605 4.79664L14.2633 4.79775L14.2647 4.79826L15.8737 5.40165L14.3363 6.17039L14.3304 6.17339L14.3037 6.18724C14.279 6.2002 14.2409 6.22052 14.1914 6.24797C14.0921 6.30291 13.9474 6.38605 13.7725 6.49537C13.4211 6.715 12.9557 7.03532 12.4939 7.43943C11.5387 8.27522 10.75 9.33483 10.75 10.5H9.25C9.25 8.66517 10.4613 7.22478 11.5061 6.31057C11.5294 6.29018 11.5527 6.26999 11.576 6.25H0V4.75H11.3542Z" fill="#16AA51"/>
</svg>
