<svg width="255" height="41" viewBox="0 0 255 41" fill="none" xmlns="http://www.w3.org/2000/svg">
<path d="M18.7299 31.3892C21.7979 31.3892 24.2947 30.4159 26.2201 28.4692C28.1456 26.5226 29.3093 23.7085 29.7114 20.0269C30.4096 13.0021 27.8071 9.48975 21.9037 9.48975C18.8357 9.48975 16.339 10.4842 14.4135 12.4731C12.488 14.4621 11.3243 17.3503 10.9223 21.1377C10.224 27.972 12.8266 31.3892 18.7299 31.3892ZM7.55803 5.20508C11.4936 1.73503 16.614 0 22.9194 0C29.2247 0 33.9325 1.8514 37.0429 5.5542C40.1532 9.257 41.2429 14.3669 40.3119 20.8838C39.3809 27.4007 36.9688 32.3625 33.0756 35.769C29.1401 39.1756 24.0196 40.8789 17.7143 40.8789C11.4089 40.8789 6.7011 39.0487 3.59075 35.3882C0.480395 31.7277 -0.609286 26.6496 0.321703 20.1538C1.25269 13.658 3.6648 8.67513 7.55803 5.20508Z" fill="#242424"/>
<path d="M71.828 30.6909L70.4633 40.3076H42.1845L47.7704 0.666504H58.371L54.1498 30.6909H71.828Z" fill="#242424"/>
<path d="M102.297 24.375L99.8847 12.7588C99.5461 11.1507 99.324 9.9764 99.2182 9.23584H99.1547C98.8162 10.3996 98.2555 11.7432 97.4726 13.2666L92.0136 24.375H102.297ZM104.233 33.9917H87.3481L84.206 40.3076H72.7167L93.1244 0.666504H107.534L116.706 40.3076H105.534L104.233 33.9917Z" fill="#242424"/>
<path d="M169.709 36.4673C164.081 39.4084 158.262 40.8789 152.253 40.8789C146.265 40.8789 141.726 39.0487 138.637 35.3882C135.569 31.7277 134.501 26.6496 135.432 20.1538C136.363 13.658 138.796 8.67513 142.731 5.20508C146.688 1.73503 151.809 0 158.093 0C163.34 0 168.196 1.23779 172.661 3.71338L168.693 11.4575C164.356 10.1668 160.653 9.52148 157.585 9.52148C154.538 9.50033 151.988 10.4842 149.936 12.4731C147.884 14.4409 146.593 17.3291 146.064 21.1377C145.577 24.2057 146.011 26.6707 147.365 28.5327C148.74 30.3947 150.793 31.3257 153.522 31.3257C157.5 31.3257 161.986 30.3312 166.979 28.3423L169.709 36.4673Z" fill="#242424"/>
<path d="M200.305 24.375L197.893 12.7588C197.554 11.1507 197.332 9.9764 197.226 9.23584H197.163C196.824 10.3996 196.263 11.7432 195.48 13.2666L190.021 24.375H200.305ZM202.241 33.9917H185.356L182.214 40.3076H170.725L191.132 0.666504H205.541L214.714 40.3076H203.542L202.241 33.9917Z" fill="#242424"/>
<path d="M239.247 24.0576H231.408L230.361 31.5479H236.455C240.898 31.5267 243.331 30.1302 243.754 27.3584C243.881 26.2581 243.585 25.4329 242.866 24.8828C242.146 24.3327 240.94 24.0576 239.247 24.0576ZM238.74 15.8691C242.083 15.8691 243.902 14.7689 244.199 12.5684C244.326 11.5316 244.082 10.7487 243.469 10.2197C242.834 9.69076 241.712 9.42627 240.104 9.42627H233.471L232.582 15.8691H238.74ZM235.312 40.3076H218.522L224.108 0.666504H240.295C245.648 0.666504 249.446 1.60807 251.689 3.49121C253.932 5.37435 254.778 8.30485 254.228 12.2827C253.741 15.7739 251.742 18.1649 248.229 19.4556C252.99 20.7039 255.074 23.5392 254.482 27.9614C253.889 32.3836 252.133 35.5469 249.213 37.4512C246.315 39.3555 241.681 40.3076 235.312 40.3076Z" fill="#242424"/>
</svg>
