<?xml version="1.0" encoding="UTF-8"?> <svg xmlns="http://www.w3.org/2000/svg" xmlns:xlink="http://www.w3.org/1999/xlink" width="41px" height="45px" viewBox="0 0 41 45"><!-- Generator: Sketch 55 (78076) - https://sketchapp.com --><title>Download</title><desc>Created with Sketch.</desc><g id="Download" stroke="none" stroke-width="1" fill="none" fill-rule="evenodd"><g id="Group-13-Copy" transform="translate(6.000000, 5.000000)" fill="#071228"><path d="M15.3889625,-2.34479103e-13 C16.1599625,0.533 16.3579625,1.27 16.3499625,2.191 C16.3129625,6.88 16.3329625,11.569 16.3329625,16.259 L16.3329625,17.451 C17.2109625,16.676 17.9779625,16.021 18.7169625,15.337 C19.3169625,14.78 19.8509625,14.151 20.4689625,13.62 C21.1049625,13.073 21.8059625,13.114 22.4389625,13.662 C23.0449625,14.188 23.1729625,15.098 22.5959625,15.695 C21.0949625,17.253 19.5239625,18.744 17.9799625,20.261 C17.3299625,20.899 16.6819625,21.541 16.0239625,22.171 C15.2189625,22.94 14.4149625,22.961 13.6339625,22.184 C11.5589625,20.118 9.49696245,18.042 7.44696245,15.953 C6.72596245,15.219 6.71396245,14.321 7.35196245,13.693 C7.99896245,13.055 8.84096245,13.095 9.60696245,13.834 C10.8029625,14.987 11.9819625,16.157 13.3109625,17.46 L13.3109625,16.349 C13.3109625,11.628 13.3309625,6.907 13.2929625,2.187 C13.2859625,1.265 13.4759625,0.528 14.2559625,-2.34479103e-13 L15.3889625,-2.34479103e-13 Z" id="Fill-4"></path><path d="M3.02776245,30.9151 L26.7387625,30.9151 C26.7587625,30.5771 26.7957625,30.2471 26.7967625,29.9171 C26.8027625,27.9981 26.7917625,26.0781 26.8037625,24.1591 C26.8107625,22.9191 27.3277625,22.2771 28.2887625,22.2621 C29.2597625,22.2461 29.8137625,22.8911 29.8187625,24.1041 C29.8307625,26.7791 29.8327625,29.4541 29.8187625,32.1281 C29.8117625,33.4931 29.2887625,33.9981 27.9197625,33.9981 C19.2347625,34.0021 10.5497625,34.0021 1.86476245,33.9981 C0.558762454,33.9971 0.0187624541,33.4791 0.0117624541,32.1801 C-0.00523754591,29.4741 -0.00223754591,26.7671 0.0107624541,24.0611 C0.0167624541,22.8971 0.550762454,22.2741 1.48776245,22.2621 C2.45576245,22.2481 3.01576245,22.8961 3.02376245,24.1071 C3.03776245,26.3391 3.02776245,28.5701 3.02776245,30.9151" id="Fill-6"></path></g></g></svg> 