<?xml version="1.0" encoding="UTF-8"?> <svg xmlns="http://www.w3.org/2000/svg" xmlns:xlink="http://www.w3.org/1999/xlink" width="135px" height="56px" viewBox="0 0 135 56"><!-- Generator: Sketch 53 (72520) - https://sketchapp.com --><title>Yulu-Logo</title><desc>Created with Sketch.</desc><g id="Website" stroke="none" stroke-width="1" fill="none" fill-rule="evenodd"><g id="Home-4-Copy" transform="translate(-215.000000, -17.000000)" fill="#00DCF7"><path d="M266,29.1474078 C264.172588,29.5762712 262.403607,30.1590229 260.706041,30.8827517 C256.50894,25.6739282 250.147169,22.3525922 243.02614,22.3525922 C235.851464,22.3525922 229.448006,25.7238285 225.252271,31 C223.569057,30.2637089 221.813402,29.66665 220,29.2231306 C225.088939,21.8305583 233.50501,17 243.02614,17 C252.514125,17 260.905253,21.7977567 266,29.1474078 Z M256,32.2171081 C254.61018,33.0025592 253.289465,33.8823142 252.047919,34.8473768 C249.732559,32.7494281 246.562106,31.4552329 243.064576,31.4552329 C239.482846,31.4552329 236.244294,32.8117802 233.917528,35 L233.916857,35 C232.687388,34.028423 231.378414,33.141223 230,32.347086 C233.228153,29.0619644 237.886046,27 243.064576,27 C248.174337,27 252.776879,29.0076777 256,32.2171081 Z M240,73 C239.161919,72.920084 238.334227,72.801588 237.519268,72.6458897 C230.228537,71.2545943 223.945111,66.9163983 219.882045,60.8786104 C216.803498,56.3030778 215,50.751675 215,44.7672792 C215,40.569625 215.88734,36.5841615 217.480732,33 C219.213189,33.3296533 220.889351,33.8267167 222.49179,34.4743115 C223.997721,35.0816038 225.438308,35.8208264 226.801488,36.6795784 C228.205884,37.5634763 229.527512,38.5731041 230.750955,39.6933053 C232.174787,40.9957286 233.46525,42.4476499 234.601903,44.0249565 L234.601903,44.0256454 C236.310234,46.397978 237.667382,49.0548389 238.592253,51.9139009 C239.186717,53.7457674 239.602909,55.6613389 239.821728,57.6378808 C239.91388,58.4670088 239.970511,59.3061263 239.990952,60.1545444 L239.990952,60.1600558 C239.985926,60.3987703 239.98358,60.6381736 239.98358,60.8786104 C239.98358,61.1183583 239.985926,61.3577617 239.990952,61.5968206 C239.990952,61.5968206 239.966825,62.3288094 239.944709,62.689809 C239.962804,62.6932536 240,73 240,73 Z M246,73 C246,73 246.008259,60.1740326 246.008259,60.1733452 C246.008259,60.1733452 246.081272,58.5247783 246.16783,57.7181937 C246.37167,55.8050038 246.759528,53.9488625 247.312242,52.1703897 C248.278914,49.0550553 249.751388,46.176507 251.628898,43.6385319 C252.741926,42.1336174 253.997674,40.7479552 255.37467,39.5045708 C256.5878,38.4089628 257.895087,37.4226407 259.282654,36.5627878 L259.282654,36.5624442 C260.635532,35.7221802 262.064396,35.0015121 263.555701,34.4134992 C265.147439,33.785621 266.809877,33.3089559 268.527817,33 C270.11493,36.5923431 271,40.5891814 271,44.8011547 C271,50.7716682 269.221931,56.3105368 266.186793,60.8751117 C262.12056,66.9899649 255.798538,71.3579627 248.472183,72.6755791 C247.659795,72.8223246 246.835514,72.9309231 246,73 Z M282,42.5201431 L282,33.2798772 L285.999996,33.2798772 L285.999996,42.5201431 C285.999996,43.977694 286.521083,45.2220107 287.562574,46.2530931 C288.604066,47.2845128 289.860945,47.800054 291.333551,47.800054 C292.805476,47.800054 294.062696,47.2845128 295.104187,46.2530931 C296.14602,45.2220107 296.666766,43.977694 296.666766,42.5201431 L296.666766,33.2798772 L300.666421,33.2798772 L300.666421,51.7604089 C300.666421,54.3178711 299.75716,56.4971122 297.937617,58.2984698 C296.118074,60.0998273 293.916832,61 291.333551,61 L291.333551,57.0403199 C292.805476,57.0403199 294.062696,56.5247787 295.104187,55.4933589 C296.14602,54.4622766 296.666766,53.2176225 296.666766,51.7604089 L296.666766,50.1311234 C295.124976,51.2172013 293.347011,51.7604089 291.333551,51.7604089 C288.75027,51.7604089 286.548688,50.8598988 284.729144,49.0582039 C282.909601,47.2571837 282,45.0776052 282,42.5201431 Z M307.333535,42.5201431 C307.333535,43.977694 307.854281,45.2220107 308.896113,46.2530931 C309.937605,47.2845128 311.194484,47.800054 312.66675,47.800054 C314.139015,47.800054 315.395894,47.2845128 316.437726,46.2530931 C317.479559,45.2220107 318.000305,43.977694 318.000305,42.5201431 L318.000305,33.2798772 L321.99996,33.2798772 L321.99996,42.5201431 C321.99996,45.0776052 321.090359,47.2571837 319.270815,49.0582039 C317.451272,50.8598988 315.250031,51.7604089 312.66675,51.7604089 C310.083468,51.7604089 307.881886,50.8598988 306.062684,49.0582039 C304.24314,47.2571837 303.333539,45.0776052 303.333539,42.5201431 L303.333539,33.2798772 L307.333535,33.2798772 L307.333535,42.5201431 Z M324.667044,51.7604427 L324.667044,28 L328.66704,28 L328.66704,51.7604427 L324.667044,51.7604427 Z M335.333575,42.5201431 C335.333575,43.977694 335.854321,45.2220107 336.896154,46.2530931 C337.937645,47.2845128 339.194524,47.800054 340.66679,47.800054 C342.139055,47.800054 343.395934,47.2845128 344.437767,46.2530931 C345.479599,45.2220107 346.000345,43.977694 346.000345,42.5201431 L346.000345,33.2798772 L350,33.2798772 L350,42.5201431 C350,45.0776052 349.090399,47.2571837 347.270856,49.0582039 C345.451312,50.8598988 343.250071,51.7604089 340.66679,51.7604089 C338.083509,51.7604089 335.881926,50.8598988 334.062724,49.0582039 C332.24318,47.2571837 331.333579,45.0776052 331.333579,42.5201431 L331.333579,33.2798772 L335.333575,33.2798772 L335.333575,42.5201431 Z" id="Yulu-Logo"></path></g></g></svg> 